<!DOCTYPE svg PUBLIC "-//W3C//DTD SVG 1.1//EN" "http://www.w3.org/Graphics/SVG/1.1/DTD/svg11.dtd">
<!-- Uploaded to: SVG Repo, www.svgrepo.com, Transformed by: SVG Repo Mixer Tools -->
<svg fill="#00d5ff" height="256px" width="256px" version="1.1" id="Layer_1" xmlns="http://www.w3.org/2000/svg" xmlns:xlink="http://www.w3.org/1999/xlink" viewBox="0 0 512.00 512.00" xml:space="preserve" stroke="#00d5ff" stroke-width="0.00512">
<g id="SVGRepo_bgCarrier" stroke-width="0"/>
<g id="SVGRepo_tracerCarrier" stroke-linecap="round" stroke-linejoin="round" stroke="#CCCCCC" stroke-width="3.072"/>
<g id="SVGRepo_iconCarrier"> <g> <g> <path d="M486.4,25.6H153.6c-14.14,0-25.6,11.46-25.6,25.6V256c0,14.14,11.46,25.6,25.6,25.6h89.6l76.8,76.8l76.8-76.8h89.6 c14.14,0,25.6-11.46,25.6-25.6V51.2C512,37.06,500.54,25.6,486.4,25.6z M486.4,256H386.193L320,322.193L253.807,256H153.6V51.2 h332.8V256z"/> </g> </g> <g> <g> <path d="M358.4,356.198V384H258.193L192,450.193L125.807,384H25.6V179.2h76.8v-25.6H25.6C11.46,153.6,0,165.06,0,179.2V384 c0,14.14,11.46,25.6,25.6,25.6h89.6l76.8,76.8l76.8-76.8h89.6c14.14,0,25.6-11.46,25.6-25.6v-53.402L358.4,356.198z"/> </g> </g> </g>
</svg>