<svg xmlns="http://www.w3.org/2000/svg" version="1.1" xmlns:xlink="http://www.w3.org/1999/xlink" xmlns:svgjs="http://svgjs.dev/svgjs" width="1440" height="700" preserveAspectRatio="none" viewBox="0 0 1440 700"><g mask="url(&quot;#SvgjsMask3122&quot;)" fill="none"><rect width="1440" height="700" x="0" y="0" fill="url(&quot;#SvgjsLinearGradient3123&quot;)"></rect><path d="M1440 0L851.5 0L1440 111.46z" fill="rgba(255, 255, 255, .1)"></path><path d="M851.5 0L1440 111.46L1440 142.18L442.52 0z" fill="rgba(255, 255, 255, .075)"></path><path d="M442.52 0L1440 142.18L1440 475.51L338.79999999999995 0z" fill="rgba(255, 255, 255, .05)"></path><path d="M338.79999999999995 0L1440 475.51L1440 626.62L263.11999999999995 0z" fill="rgba(255, 255, 255, .025)"></path><path d="M0 700L364.48 700L0 643.93z" fill="rgba(0, 0, 0, .1)"></path><path d="M0 643.93L364.48 700L859.83 700L0 545.13z" fill="rgba(0, 0, 0, .075)"></path><path d="M0 545.13L859.83 700L908.51 700L0 431.47z" fill="rgba(0, 0, 0, .05)"></path><path d="M0 431.47L908.51 700L978.92 700L0 402.79z" fill="rgba(0, 0, 0, .025)"></path></g><defs><mask id="SvgjsMask3122"><rect width="1440" height="700" fill="#ffffff"></rect></mask><linearGradient x1="0%" y1="50%" x2="100%" y2="50%" gradientUnits="userSpaceOnUse" id="SvgjsLinearGradient3123"><stop stop-color="rgba(72, 178, 255, 0.31)" offset="0"></stop><stop stop-color="rgba(0, 66, 114, 0.3)" offset="1"></stop></linearGradient></defs></svg>