<svg xmlns="http://www.w3.org/2000/svg" version="1.1" xmlns:xlink="http://www.w3.org/1999/xlink" xmlns:svgjs="http://svgjs.dev/svgjs" width="1440" height="600" preserveAspectRatio="none" viewBox="0 0 1440 600"><g mask="url(&quot;#SvgjsMask1655&quot;)" fill="none"><rect width="1440" height="600" x="0" y="0" fill="url(&quot;#SvgjsLinearGradient1656&quot;)"></rect><path d="M1440 0L1089.52 0L1440 217.44z" fill="rgba(255, 255, 255, .1)"></path><path d="M1089.52 0L1440 217.44L1440 373.76L963.64 0z" fill="rgba(255, 255, 255, .075)"></path><path d="M963.64 0L1440 373.76L1440 436.36L425.22 0z" fill="rgba(255, 255, 255, .05)"></path><path d="M425.22 0L1440 436.36L1440 490.46000000000004L300.92 0z" fill="rgba(255, 255, 255, .025)"></path><path d="M0 600L576.61 600L0 322.08z" fill="rgba(0, 0, 0, .1)"></path><path d="M0 322.08L576.61 600L794.95 600L0 276.24z" fill="rgba(0, 0, 0, .075)"></path><path d="M0 276.24L794.95 600L1114.6 600L0 140.33z" fill="rgba(0, 0, 0, .05)"></path><path d="M0 140.33000000000004L1114.6 600L1169.4299999999998 600L0 76.56000000000003z" fill="rgba(0, 0, 0, .025)"></path></g><defs><mask id="SvgjsMask1655"><rect width="1440" height="600" fill="#ffffff"></rect></mask><linearGradient x1="14.58%" y1="-35%" x2="85.42%" y2="135%" gradientUnits="userSpaceOnUse" id="SvgjsLinearGradient1656"><stop stop-color="#0e2a47" offset="0"></stop><stop stop-color="rgba(0, 59, 103, 1)" offset="1"></stop></linearGradient></defs></svg>