<svg xmlns="http://www.w3.org/2000/svg" version="1.1" xmlns:xlink="http://www.w3.org/1999/xlink" xmlns:svgjs="http://svgjs.dev/svgjs" width="1440" height="560" preserveAspectRatio="none" viewBox="0 0 1440 560"><g clip-path="url(&quot;#SvgjsClipPath1010&quot;)" fill="none"><path d="M7.03 45.04Q12.38 46.53 17.74 48.02 23.09 49.51 28.44 51 33.8 52.48 39.15 53.96" stroke="rgba(117, 81, 224, 1)" stroke-width="4"></path><path d="M74.14 63.42Q82.15 65.52 90.16 67.61 98.17 69.64 106.18 71.68 114.19 73.64 122.2 75.61 130.21 77.49 138.22 79.38 146.23 81.17 154.24 82.97 162.25 84.67 170.26 86.37" stroke="rgba(22, 177, 251, 1)" stroke-width="4"></path><path d="M185.45 89.4Q194.06 90.99 202.67 92.58 211.28 94.03 219.89 95.49 228.5 96.79 237.11 98.09 245.72 99.24 254.33 100.39 262.94 101.38 271.55 102.37 280.16 103.19 288.77 104.01" stroke="rgba(218, 214, 214, 0.34)" stroke-width="4"></path><path d="M301.89 105.03Q309.89 105.52 317.9 106 325.9 106.33 333.91 106.66 341.91 106.84 349.91 107.01 357.92 107.04 365.92 107.06 373.92 106.92 381.93 106.78 389.93 106.49 397.94 106.2 405.94 105.76 413.94 105.31 421.95 104.72 429.95 104.12 437.96 103.37 445.96 102.63" stroke="rgba(117, 81, 224, 1)" stroke-width="4"></path><path d="M461.82 100.86Q467.06 100.21 472.29 99.55 477.52 98.83 482.76 98.11 488 97.34 493.23 96.56" stroke="rgba(117, 81, 224, 1)" stroke-width="4"></path><path d="M529.7 90.32Q533.83 89.53 537.97 88.73 542.1 87.91 546.23 87.08 550.37 86.23 554.5 85.38" stroke="rgba(218, 214, 214, 0.34)" stroke-width="4"></path><path d="M565.92 82.94Q572.12 81.55 578.32 80.17 584.52 78.73 590.72 77.29 596.92 75.81 603.12 74.32" stroke="rgba(218, 214, 214, 0.34)" stroke-width="4"></path><path d="M620.37 70.03Q628.28 68 636.2 65.96 644.11 63.87 652.03 61.78 659.94 59.65 667.86 57.51 675.77 55.34 683.69 53.18 691.6 50.98 699.52 48.79 707.43 46.58 715.34 44.38 723.26 42.17 731.17 39.96 739.09 37.76 747 35.55 754.92 33.37 762.83 31.19 770.75 29.03 778.66 26.87 786.58 24.76 794.49 22.64" stroke="rgba(117, 81, 224, 1)" stroke-width="4"></path><path d="M816.87 16.82Q824.5 14.91 832.13 13 839.75 11.15 847.38 9.31 855.01 7.54 862.64 5.77 870.27 4.08 877.9 2.39 885.52 0.79 893.15-0.81 900.78-2.31 908.41-3.81" stroke="rgba(117, 81, 224, 1)" stroke-width="4"></path><path d="M923.99-6.66Q931.65-7.95 939.32-9.24 946.99-10.41 954.65-11.59 962.32-12.64 969.98-13.69 977.64-14.61 985.31-15.54 992.97-16.33 1000.64-17.12 1008.31-17.78 1015.97-18.44 1023.63-18.96 1031.3-19.48 1038.97-19.86 1046.63-20.25 1054.3-20.49 1061.96-20.72 1069.63-20.82 1077.29-20.92 1084.95-20.87 1092.62-20.83 1100.28-20.64 1107.95-20.45 1115.62-20.12 1123.28-19.79" stroke="rgba(117, 81, 224, 1)" stroke-width="4"></path><path d="M1159.64-17.1Q1167.75-16.25 1175.86-15.41 1183.98-14.41 1192.09-13.42 1200.2-12.29 1208.31-11.15 1216.42-9.88 1224.54-8.61 1232.65-7.21 1240.76-5.81 1248.87-4.29 1256.98-2.77 1265.1-1.13 1273.21 0.5 1281.32 2.25 1289.43 3.99 1297.55 5.83 1305.66 7.67 1313.77 9.6 1321.88 11.53 1329.99 13.54 1338.11 15.55 1346.22 17.63 1354.33 19.71" stroke="rgba(117, 81, 224, 1)" stroke-width="4"></path><path d="M1367.98 23.29Q1374.21 24.96 1380.44 26.63 1386.67 28.32 1392.9 30.02 1399.13 31.73 1405.36 33.44" stroke="rgba(117, 81, 224, 1)" stroke-width="4"></path><path d="M22.52 92.43Q31.43 94.9 40.34 97.36 49.26 99.79 58.17 102.22 67.08 104.61 75.99 106.99 84.9 109.31 93.82 111.63 102.73 113.87 111.64 116.11" stroke="rgba(22, 177, 251, 1)" stroke-width="4"></path><path d="M136.28 122.01Q142.68 123.46 149.08 124.91 155.48 126.3 161.87 127.69 168.27 129.02 174.67 130.34" stroke="rgba(22, 177, 251, 1)" stroke-width="4"></path><path d="M208.83 136.73Q213.48 137.5 218.12 138.28 222.77 139.01 227.41 139.74 232.06 140.43 236.7 141.11" stroke="rgba(117, 81, 224, 1)" stroke-width="4"></path><path d="M264.79 144.71Q272.79 145.54 280.79 146.37 288.8 147.05 296.8 147.74 304.8 148.27 312.8 148.8 320.8 149.18 328.8 149.56 336.81 149.79 344.81 150.01 352.81 150.08 360.81 150.15 368.81 150.07 376.82 149.98 384.82 149.74 392.82 149.5 400.82 149.1 408.82 148.71 416.82 148.16 424.83 147.61 432.83 146.91 440.83 146.21" stroke="rgba(117, 81, 224, 1)" stroke-width="4"></path><path d="M472.29 142.62Q480.86 141.42 489.42 140.22 497.99 138.86 506.55 137.51 515.12 136.01 523.68 134.51" stroke="rgba(117, 81, 224, 1)" stroke-width="4"></path><path d="M535.71 132.25Q543.55 130.68 551.4 129.1 559.24 127.43 567.09 125.76 574.93 123.99 582.78 122.22 590.62 120.37 598.47 118.52 606.31 116.6 614.15 114.67 622 112.68 629.84 110.69 637.69 108.64 645.53 106.59 653.38 104.49 661.22 102.39" stroke="rgba(117, 81, 224, 1)" stroke-width="4"></path><path d="M699.06 91.99Q707.02 89.78 714.98 87.56 722.93 85.34 730.89 83.11 738.85 80.9 746.81 78.69 754.76 76.49 762.72 74.29 770.68 72.13 778.64 69.96 786.59 67.83 794.55 65.7 802.51 63.62 810.47 61.54 818.42 59.52 826.38 57.5 834.34 55.55 842.3 53.6 850.25 51.73 858.21 49.86 866.17 48.07 874.13 46.29 882.08 44.6 890.04 42.91" stroke="rgba(117, 81, 224, 1)" stroke-width="4"></path><path d="M925.92 36.08Q929.89 35.41 933.85 34.73 937.82 34.09 941.79 33.44 945.75 32.83 949.72 32.22" stroke="rgba(218, 214, 214, 0.34)" stroke-width="4"></path><path d="M963.61 30.23Q966.88 29.8 970.14 29.37 973.4 28.96 976.67 28.55 979.94 28.16 983.2 27.78" stroke="rgba(218, 214, 214, 0.34)" stroke-width="4"></path><path d="M1015.38 24.68Q1023.44 24.13 1031.51 23.58 1039.57 23.19 1047.63 22.79 1055.7 22.55 1063.76 22.31 1071.82 22.23 1079.88 22.15 1087.95 22.23 1096.01 22.31 1104.07 22.55 1112.14 22.78 1120.2 23.17 1128.26 23.57 1136.32 24.12 1144.39 24.66 1152.45 25.36 1160.51 26.06 1168.58 26.91 1176.64 27.76" stroke="rgba(22, 177, 251, 1)" stroke-width="4"></path><path d="M1198.06 30.46Q1205.84 31.59 1213.62 32.73 1221.4 33.98 1229.18 35.24 1236.96 36.61 1244.74 37.99 1252.52 39.47 1260.3 40.96 1268.08 42.55 1275.86 44.14 1283.64 45.82 1291.42 47.51 1299.2 49.28 1306.98 51.06 1314.76 52.91 1322.54 54.77 1330.32 56.7 1338.1 58.63 1345.88 60.62 1353.66 62.61" stroke="rgba(117, 81, 224, 1)" stroke-width="4"></path><path d="M1387.84 71.71Q1390.74 72.5 1393.64 73.29 1396.53 74.09 1399.43 74.88 1402.33 75.68 1405.23 76.48 1408.12 77.28 1411.02 78.08 1413.92 78.89 1416.82 79.69 1419.72 80.5 1422.61 81.3 1425.51 82.11 1428.41 82.92 1431.31 83.73 1434.2 84.54 1437.1 85.34 1440 86.15" stroke="rgba(117, 81, 224, 1)" stroke-width="4"></path><path d="M9.12 131.78Q16.99 133.97 24.87 136.16 32.74 138.34 40.62 140.51 48.49 142.66 56.36 144.81 64.24 146.92 72.11 149.04 79.99 151.1 87.86 153.17" stroke="rgba(22, 177, 251, 1)" stroke-width="4"></path><path d="M101.73 156.72Q109.38 158.61 117.04 160.51 124.69 162.34 132.35 164.17 140 165.92 147.66 167.67 155.31 169.33 162.96 171 170.62 172.57 178.27 174.14 185.93 175.61 193.58 177.09 201.24 178.45 208.89 179.82" stroke="rgba(218, 214, 214, 0.34)" stroke-width="4"></path><path d="M235.57 184.03Q243.51 185.11 251.45 186.19 259.39 187.13 267.33 188.07 275.27 188.87 283.22 189.67 291.16 190.33 299.1 190.98 307.04 191.49 314.98 192 322.92 192.36 330.86 192.71 338.8 192.92 346.74 193.12 354.68 193.18 362.62 193.23 370.57 193.12 378.51 193.02 386.45 192.77 394.39 192.51 402.33 192.1 410.27 191.7" stroke="rgba(218, 214, 214, 0.34)" stroke-width="4"></path><path d="M430.36 190.24Q438.43 189.48 446.5 188.73 454.57 187.82 462.64 186.92 470.71 185.87 478.78 184.83 486.85 183.64 494.92 182.46 502.99 181.14 511.06 179.82 519.13 178.38 527.2 176.94 535.27 175.38 543.34 173.82 551.41 172.15 559.48 170.48 567.55 168.71 575.62 166.93 583.69 165.07 591.76 163.2" stroke="rgba(218, 214, 214, 0.34)" stroke-width="4"></path><path d="M625.51 154.88Q633.03 152.93 640.54 150.98 648.06 148.98 655.58 146.98 663.09 144.95 670.61 142.92 678.13 140.85 685.64 138.79 693.16 136.7 700.68 134.62 708.2 132.52 715.71 130.43 723.23 128.33 730.75 126.23 738.26 124.14 745.78 122.05" stroke="rgba(218, 214, 214, 0.34)" stroke-width="4"></path><path d="M767.07 116.18Q774.84 114.07 782.62 111.96 790.39 109.89 798.17 107.82 805.94 105.8 813.72 103.78 821.5 101.82 829.27 99.86" stroke="rgba(117, 81, 224, 1)" stroke-width="4"></path><path d="M859.98 92.53Q867.88 90.76 875.78 89 883.68 87.33 891.59 85.67 899.49 84.1 907.39 82.54 915.29 81.09 923.19 79.64 931.09 78.3 938.99 76.97 946.89 75.76 954.8 74.55 962.7 73.47 970.6 72.39 978.5 71.44 986.4 70.49 994.3 69.69 1002.2 68.88 1010.11 68.22 1018.01 67.56 1025.91 67.04 1033.81 66.53" stroke="rgba(117, 81, 224, 1)" stroke-width="4"></path><path d="M1071.18 65.28Q1078.77 65.27 1086.36 65.26 1093.95 65.38 1101.55 65.51 1109.14 65.78 1116.73 66.05 1124.32 66.46 1131.91 66.87 1139.5 67.41 1147.09 67.95 1154.69 68.63 1162.28 69.31 1169.87 70.12 1177.46 70.93" stroke="rgba(22, 177, 251, 1)" stroke-width="4"></path><path d="M1215.93 76.16Q1224.35 77.55 1232.76 78.93 1241.18 80.45 1249.59 81.97 1258.01 83.62 1266.43 85.26 1274.84 87.03 1283.26 88.79" stroke="rgba(218, 214, 214, 0.34)" stroke-width="4"></path><path d="M1308.51 94.49Q1313.23 95.62 1317.96 96.74 1322.68 97.89 1327.41 99.04 1332.13 100.22 1336.86 101.39" stroke="rgba(218, 214, 214, 0.34)" stroke-width="4"></path><path d="M1372.5 110.65Q1376.25 111.66 1380 112.67 1383.75 113.68 1387.5 114.7 1391.25 115.72 1395 116.74 1398.75 117.78 1402.5 118.81 1406.25 119.84 1410 120.88 1413.75 121.92 1417.5 122.96 1421.25 124 1425 125.04 1428.75 126.09 1432.5 127.14 1436.25 128.18 1440 129.23" stroke="rgba(22, 177, 251, 1)" stroke-width="4"></path><path d="M32.07 181.23Q40.8 183.63 49.53 186.03 58.26 188.39 67 190.75 75.73 193.06 84.46 195.36 93.19 197.6 101.92 199.84" stroke="rgba(117, 81, 224, 1)" stroke-width="4"></path><path d="M136.77 208.27Q144.73 210.07 152.7 211.86 160.66 213.56 168.62 215.26 176.59 216.86 184.55 218.45 192.51 219.94 200.48 221.42 208.44 222.79 216.4 224.15 224.37 225.39 232.33 226.63 240.3 227.74 248.26 228.85 256.22 229.82 264.19 230.8 272.15 231.63 280.11 232.46 288.08 233.15 296.04 233.83" stroke="rgba(218, 214, 214, 0.34)" stroke-width="4"></path><path d="M317.26 235.2Q324.92 235.52 332.58 235.85 340.24 236.03 347.9 236.22 355.56 236.26 363.22 236.3 370.88 236.2 378.54 236.1 386.2 235.85 393.86 235.61 401.52 235.23 409.18 234.84 416.84 234.31 424.5 233.79" stroke="rgba(117, 81, 224, 1)" stroke-width="4"></path><path d="M457.74 230.58Q466.06 229.54 474.38 228.5 482.69 227.32 491.01 226.13 499.33 224.81 507.65 223.48" stroke="rgba(218, 214, 214, 0.34)" stroke-width="4"></path><path d="M534.89 218.56Q537.14 218.12 539.4 217.68 541.65 217.23 543.9 216.79 546.16 216.33 548.41 215.87" stroke="rgba(218, 214, 214, 0.34)" stroke-width="4"></path><path d="M570.12 211.24Q579.64 209.07 589.16 206.89 598.67 204.6 608.19 202.31 617.71 199.91 627.23 197.51" stroke="rgba(117, 81, 224, 1)" stroke-width="4"></path><path d="M640.22 194.14Q647.89 192.1 655.57 190.07 663.24 187.99 670.91 185.91 678.58 183.8 686.26 181.7 693.93 179.57 701.6 177.44 709.28 175.3 716.95 173.16 724.62 171.02 732.29 168.88 739.97 166.74 747.64 164.61 755.31 162.49 762.98 160.37 770.66 158.28 778.33 156.19" stroke="rgba(22, 177, 251, 1)" stroke-width="4"></path><path d="M817.72 145.84Q825.27 143.95 832.82 142.06 840.37 140.24 847.91 138.41 855.46 136.66 863.01 134.91 870.56 133.24 878.11 131.58 885.66 129.99 893.2 128.41 900.75 126.93 908.3 125.44 915.85 124.06 923.4 122.68 930.95 121.4 938.5 120.12 946.04 118.96 953.59 117.8 961.14 116.75 968.69 115.71 976.24 114.79 983.79 113.87 991.33 113.07 998.88 112.27 1006.43 111.61 1013.98 110.94" stroke="rgba(218, 214, 214, 0.34)" stroke-width="4"></path><path d="M1026.85 110.02Q1034.96 109.58 1043.07 109.14 1051.17 108.85 1059.28 108.57 1067.39 108.44 1075.5 108.32 1083.61 108.36 1091.72 108.39 1099.82 108.59 1107.93 108.78 1116.04 109.14 1124.15 109.49 1132.26 110 1140.36 110.51 1148.47 111.18 1156.58 111.85 1164.69 112.67 1172.8 113.48 1180.91 114.45 1189.01 115.41 1197.12 116.52 1205.23 117.63" stroke="rgba(218, 214, 214, 0.34)" stroke-width="4"></path><path d="M1241.46 123.54Q1251.09 125.37 1260.72 127.2 1270.36 129.18 1279.99 131.17 1289.62 133.3 1299.25 135.43" stroke="rgba(22, 177, 251, 1)" stroke-width="4"></path><path d="M1332.49 143.37Q1340.03 145.28 1347.56 147.19 1355.1 149.15 1362.64 151.11 1370.17 153.12 1377.71 155.13" stroke="rgba(218, 214, 214, 0.34)" stroke-width="4"></path><path d="M1389.42 158.3Q1391.95 158.99 1394.48 159.68 1397.01 160.37 1399.54 161.07 1402.07 161.76 1404.59 162.46 1407.12 163.16 1409.65 163.86 1412.18 164.56 1414.71 165.26 1417.24 165.96 1419.77 166.67 1422.3 167.37 1424.83 168.07 1427.36 168.78 1429.88 169.48 1432.41 170.19 1434.94 170.9 1437.47 171.6 1440 172.31" stroke="rgba(117, 81, 224, 1)" stroke-width="4"></path><path d="M21.24 221.31Q28.86 223.42 36.48 225.53 44.1 227.62 51.72 229.7 59.33 231.76 66.95 233.82 74.57 235.83 82.19 237.85 89.81 239.81 97.43 241.78" stroke="rgba(117, 81, 224, 1)" stroke-width="4"></path><path d="M133.7 250.64Q134.83 250.9 135.97 251.17 137.1 251.43 138.24 251.69 139.38 251.95 140.51 252.21" stroke="rgba(218, 214, 214, 0.34)" stroke-width="4"></path><path d="M167.28 258.06Q173.55 259.33 179.82 260.6 186.09 261.81 192.36 263.01 198.63 264.15 204.9 265.28" stroke="rgba(218, 214, 214, 0.34)" stroke-width="4"></path><path d="M219.34 267.7Q227.33 268.93 235.33 270.15 243.32 271.23 251.32 272.32 259.31 273.27 267.31 274.22 275.3 275.03 283.29 275.83 291.29 276.49 299.28 277.15 307.28 277.66 315.27 278.17" stroke="rgba(218, 214, 214, 0.34)" stroke-width="4"></path><path d="M327.09 278.73Q334.44 278.95 341.8 279.18 349.15 279.28 356.51 279.38 363.87 279.34 371.22 279.31" stroke="rgba(22, 177, 251, 1)" stroke-width="4"></path><path d="M401.57 278.33Q406.41 278.06 411.24 277.79 416.08 277.46 420.92 277.14 425.75 276.75 430.59 276.37" stroke="rgba(22, 177, 251, 1)" stroke-width="4"></path><path d="M448.35 274.69Q456.46 273.76 464.58 272.84 472.69 271.77 480.8 270.7 488.92 269.49 497.03 268.28 505.14 266.94 513.25 265.6 521.37 264.13 529.48 262.67 537.59 261.08 545.71 259.5 553.82 257.8 561.93 256.11 570.05 254.31 578.16 252.51" stroke="rgba(218, 214, 214, 0.34)" stroke-width="4"></path><path d="M600.01 247.38Q607.99 245.41 615.98 243.45 623.96 241.41 631.94 239.37 639.93 237.28 647.91 235.19 655.89 233.04 663.88 230.9 671.86 228.72 679.84 226.54 687.83 224.33 695.81 222.13 703.79 219.9 711.78 217.68 719.76 215.45 727.74 213.22 735.73 211 743.71 208.78 751.69 206.57 759.68 204.36 767.66 202.18 775.64 200 783.63 197.85 791.61 195.71" stroke="rgba(117, 81, 224, 1)" stroke-width="4"></path><path d="M808.47 191.29Q816.14 189.33 823.8 187.38 831.47 185.49 839.14 183.59 846.8 181.77 854.47 179.95 862.14 178.21 869.8 176.47 877.47 174.81 885.13 173.16 892.8 171.6 900.47 170.04 908.13 168.58 915.8 167.12 923.47 165.77 931.13 164.42 938.8 163.18 946.47 161.94 954.13 160.83 961.8 159.71" stroke="rgba(22, 177, 251, 1)" stroke-width="4"></path><path d="M999.53 155.29Q1007.75 154.58 1015.96 153.87 1024.18 153.31 1032.4 152.76 1040.62 152.37 1048.83 151.98 1057.05 151.75 1065.27 151.52 1073.48 151.45 1081.7 151.39 1089.92 151.49 1098.13 151.58 1106.35 151.85 1114.57 152.11 1122.79 152.54 1131 152.96 1139.22 153.55 1147.44 154.14 1155.65 154.88 1163.87 155.62" stroke="rgba(117, 81, 224, 1)" stroke-width="4"></path><path d="M1199.39 159.87Q1207.01 160.99 1214.63 162.11 1222.25 163.35 1229.87 164.59 1237.49 165.94 1245.11 167.29 1252.73 168.74 1260.35 170.2 1267.97 171.75 1275.59 173.31 1283.21 174.96 1290.83 176.61 1298.45 178.34 1306.07 180.08" stroke="rgba(22, 177, 251, 1)" stroke-width="4"></path><path d="M1324.14 184.39Q1327.18 185.14 1330.21 185.89 1333.25 186.64 1336.29 187.4 1339.32 188.17 1342.36 188.94" stroke="rgba(117, 81, 224, 1)" stroke-width="4"></path><path d="M1358.37 193.07Q1363.47 194.41 1368.57 195.76 1373.68 197.13 1378.78 198.49 1383.88 199.87 1388.98 201.25 1394.08 202.65 1399.18 204.05 1404.29 205.45 1409.39 206.86 1414.49 208.28 1419.59 209.69 1424.69 211.11 1429.8 212.54 1434.9 213.96 1440 215.38" stroke="rgba(218, 214, 214, 0.34)" stroke-width="4"></path><path d="M17.46 263.33Q25.28 265.5 33.1 267.67 40.92 269.82 48.74 271.97 56.56 274.09 64.38 276.2 72.2 278.28 80.02 280.36 87.84 282.38 95.66 284.41 103.48 286.37 111.3 288.33 119.12 290.23 126.94 292.12 134.76 293.94 142.58 295.76 150.4 297.49 158.22 299.22 166.04 300.85 173.86 302.49" stroke="rgba(117, 81, 224, 1)" stroke-width="4"></path><path d="M203.19 308.06Q211.28 309.42 219.37 310.79 227.45 312.02 235.54 313.25 243.63 314.35 251.71 315.45 259.8 316.41 267.89 317.36" stroke="rgba(218, 214, 214, 0.34)" stroke-width="4"></path><path d="M300.99 320.35Q309.4 320.87 317.81 321.38 326.21 321.72 334.62 322.07 343.03 322.24 351.44 322.42 359.85 322.42 368.25 322.42 376.66 322.25 385.07 322.08 393.48 321.74 401.88 321.4 410.29 320.88 418.7 320.37" stroke="rgba(218, 214, 214, 0.34)" stroke-width="4"></path><path d="M440.66 318.54Q449.38 317.61 458.09 316.69 466.81 315.59 475.53 314.5 484.24 313.25 492.96 311.99" stroke="rgba(218, 214, 214, 0.34)" stroke-width="4"></path><path d="M532.74 305.13Q539.82 303.73 546.9 302.33 553.98 300.85 561.05 299.37 568.13 297.82 575.21 296.26" stroke="rgba(22, 177, 251, 1)" stroke-width="4"></path><path d="M592.59 292.24Q600.25 290.38 607.9 288.53 615.56 286.61 623.21 284.69 630.87 282.72 638.52 280.74 646.17 278.71 653.83 276.68 661.49 274.62 669.14 272.55 676.8 270.45 684.45 268.35 692.11 266.23 699.76 264.11 707.41 261.97 715.07 259.84 722.73 257.7 730.38 255.56 738.04 253.43 745.69 251.3 753.35 249.19 761 247.07" stroke="rgba(117, 81, 224, 1)" stroke-width="4"></path><path d="M798.5 236.97Q806.45 234.9 814.4 232.84 822.35 230.84 830.3 228.84 838.25 226.91 846.2 224.97 854.15 223.12 862.1 221.27 870.05 219.51 878 217.75 885.94 216.09 893.89 214.43 901.84 212.87 909.79 211.31 917.74 209.87 925.69 208.43 933.64 207.11 941.59 205.78 949.54 204.59 957.49 203.39 965.44 202.33 973.39 201.26" stroke="rgba(22, 177, 251, 1)" stroke-width="4"></path><path d="M995.36 198.78Q1000.78 198.26 1006.2 197.75 1011.62 197.31 1017.03 196.86 1022.45 196.49 1027.87 196.11" stroke="rgba(218, 214, 214, 0.34)" stroke-width="4"></path><path d="M1060.25 194.7Q1068.64 194.58 1077.02 194.47 1085.41 194.52 1093.79 194.58 1102.18 194.8 1110.56 195.03 1118.95 195.43 1127.33 195.82 1135.72 196.38 1144.1 196.95" stroke="rgba(218, 214, 214, 0.34)" stroke-width="4"></path><path d="M1154.22 197.79Q1162.31 198.58 1170.4 199.38 1178.49 200.32 1186.59 201.26 1194.68 202.34 1202.77 203.43 1210.86 204.65 1218.95 205.87 1227.04 207.22 1235.13 208.57 1243.23 210.05 1251.32 211.53 1259.41 213.12 1267.5 214.71 1275.59 216.41 1283.68 218.12 1291.78 219.92 1299.87 221.72 1307.96 223.62 1316.05 225.51" stroke="rgba(218, 214, 214, 0.34)" stroke-width="4"></path><path d="M1335.09 230.18Q1341.65 231.84 1348.2 233.51 1354.76 235.21 1361.32 236.92 1367.87 238.66 1374.43 240.4 1380.99 242.17 1387.55 243.94 1394.1 245.74 1400.66 247.53 1407.22 249.34 1413.77 251.15 1420.33 252.98 1426.89 254.8 1433.44 256.63 1440 258.46" stroke="rgba(22, 177, 251, 1)" stroke-width="4"></path><path d="M25.26 308.58Q31.88 310.41 38.5 312.24 45.12 314.05 51.73 315.86 58.35 317.65 64.97 319.44" stroke="rgba(117, 81, 224, 1)" stroke-width="4"></path><path d="M85.27 324.8Q93.39 326.89 101.51 328.97 109.62 330.98 117.74 332.99 125.86 334.92 133.98 336.86 142.1 338.7 150.22 340.55 158.33 342.29 166.45 344.04 174.57 345.68 182.69 347.32 190.81 348.85 198.92 350.37 207.04 351.77 215.16 353.18 223.28 354.45 231.4 355.72 239.52 356.86 247.63 358 255.75 358.99 263.87 359.99" stroke="rgba(22, 177, 251, 1)" stroke-width="4"></path><path d="M296.04 363.06Q303.94 363.6 311.84 364.13 319.74 364.52 327.64 364.9 335.54 365.14 343.44 365.37 351.34 365.45 359.25 365.54 367.15 365.47 375.05 365.4 382.95 365.18 390.85 364.96 398.75 364.59 406.65 364.22 414.55 363.7 422.45 363.18" stroke="rgba(22, 177, 251, 1)" stroke-width="4"></path><path d="M433.42 362.28Q440.94 361.56 448.46 360.83 455.98 359.98 463.5 359.12 471.03 358.14 478.55 357.17 486.07 356.07 493.59 354.97 501.11 353.76 508.63 352.55 516.15 351.22 523.67 349.9 531.19 348.47 538.71 347.05 546.24 345.52 553.76 344 561.28 342.38 568.8 340.76 576.32 339.06 583.84 337.36" stroke="rgba(117, 81, 224, 1)" stroke-width="4"></path><path d="M619.91 328.61Q628.11 326.5 636.32 324.39 644.52 322.22 652.72 320.06 660.93 317.84 669.13 315.63" stroke="rgba(117, 81, 224, 1)" stroke-width="4"></path><path d="M708.75 304.68Q716.41 302.54 724.06 300.4 731.72 298.27 739.37 296.14 747.03 294.01 754.68 291.89" stroke="rgba(22, 177, 251, 1)" stroke-width="4"></path><path d="M778.65 285.34Q786.49 283.24 794.34 281.14 802.18 279.09 810.02 277.04 817.86 275.05 825.71 273.06 833.55 271.13 841.39 269.2 849.23 267.35 857.08 265.5 864.92 263.74 872.76 261.97 880.6 260.3 888.45 258.62 896.29 257.05 904.13 255.48 911.97 254.01 919.82 252.54 927.66 251.19 935.5 249.84" stroke="rgba(22, 177, 251, 1)" stroke-width="4"></path><path d="M950.24 247.53Q953.21 247.09 956.18 246.65 959.16 246.24 962.13 245.82 965.1 245.42 968.07 245.02" stroke="rgba(22, 177, 251, 1)" stroke-width="4"></path><path d="M995.58 241.83Q1004.01 241.07 1012.44 240.3 1020.86 239.7 1029.29 239.1 1037.72 238.67 1046.15 238.24 1054.58 237.97 1063.01 237.71 1071.43 237.63 1079.86 237.54 1088.29 237.62 1096.72 237.71 1105.15 237.97 1113.57 238.22 1122 238.65 1130.43 239.08" stroke="rgba(22, 177, 251, 1)" stroke-width="4"></path><path d="M1163.51 241.74Q1165.45 241.94 1167.39 242.14 1169.34 242.34 1171.28 242.55 1173.22 242.76 1175.16 242.98" stroke="rgba(218, 214, 214, 0.34)" stroke-width="4"></path><path d="M1193.44 245.22Q1197.76 245.81 1202.08 246.41 1206.39 247.04 1210.71 247.67 1215.03 248.34 1219.35 249.01" stroke="rgba(218, 214, 214, 0.34)" stroke-width="4"></path><path d="M1231.18 250.97Q1234.17 251.49 1237.17 252.01 1240.16 252.54 1243.15 253.08 1246.15 253.64 1249.14 254.19" stroke="rgba(218, 214, 214, 0.34)" stroke-width="4"></path><path d="M1259.2 256.13Q1266.15 257.54 1273.11 258.94 1280.06 260.43 1287.02 261.92 1293.97 263.48 1300.92 265.04 1307.88 266.67 1314.83 268.3 1321.78 269.99 1328.74 271.67 1335.69 273.42 1342.65 275.16 1349.6 276.95 1356.55 278.75 1363.51 280.58 1370.46 282.42 1377.42 284.29 1384.37 286.16 1391.32 288.05 1398.28 289.95 1405.23 291.87 1412.18 293.79 1419.14 295.72 1426.09 297.66 1433.05 299.6 1440 301.54" stroke="rgba(117, 81, 224, 1)" stroke-width="4"></path><path d="M40.62 355.9Q48.81 358.13 57 360.37 65.19 362.56 73.38 364.76 81.57 366.9 89.76 369.05 97.95 371.13 106.14 373.21 114.33 375.21 122.52 377.22" stroke="rgba(22, 177, 251, 1)" stroke-width="4"></path><path d="M146.84 382.87Q154.94 384.64 163.04 386.4 171.14 388.06 179.25 389.72 187.35 391.27 195.45 392.82 203.55 394.24 211.65 395.67 219.75 396.97 227.85 398.27 235.95 399.43 244.06 400.6 252.16 401.62 260.26 402.65 268.36 403.53 276.46 404.41 284.56 405.14 292.66 405.87 300.76 406.45 308.87 407.03 316.97 407.45 325.07 407.87 333.17 408.14 341.27 408.4" stroke="rgba(117, 81, 224, 1)" stroke-width="4"></path><path d="M377.94 408.42Q385.71 408.18 393.48 407.93 401.25 407.55 409.02 407.16 416.79 406.63 424.56 406.09 432.33 405.42 440.1 404.75 447.86 403.94 455.63 403.12 463.4 402.18 471.17 401.23 478.94 400.16 486.71 399.08 494.48 397.88 502.25 396.68 510.02 395.36 517.79 394.04" stroke="rgba(22, 177, 251, 1)" stroke-width="4"></path><path d="M546.24 388.62Q555.54 386.67 564.84 384.71 574.14 382.62 583.43 380.53 592.73 378.33 602.03 376.12 611.33 373.81 620.63 371.5" stroke="rgba(117, 81, 224, 1)" stroke-width="4"></path><path d="M635.39 367.71Q643.68 365.52 651.96 363.34 660.25 361.1 668.54 358.87 676.82 356.59 685.11 354.32 693.4 352.02 701.68 349.72 709.97 347.41 718.26 345.1 726.54 342.79 734.83 340.48 743.12 338.18 751.4 335.87 759.69 333.59 767.98 331.32 776.26 329.07 784.55 326.83" stroke="rgba(218, 214, 214, 0.34)" stroke-width="4"></path><path d="M808.84 320.42Q816.78 318.4 824.73 316.38 832.67 314.42 840.62 312.47 848.56 310.59 856.5 308.71 864.45 306.92 872.39 305.13 880.33 303.43 888.28 301.73 896.22 300.14 904.17 298.55 912.11 297.06 920.05 295.58 928 294.21 935.94 292.85 943.89 291.61 951.83 290.37" stroke="rgba(22, 177, 251, 1)" stroke-width="4"></path><path d="M989.93 285.49Q998 284.71 1006.08 283.92 1014.15 283.28 1022.23 282.64 1030.3 282.15 1038.38 281.67 1046.45 281.34 1054.53 281.01 1062.6 280.84 1070.68 280.67" stroke="rgba(22, 177, 251, 1)" stroke-width="4"></path><path d="M1103.62 280.95Q1111.6 281.26 1119.58 281.57 1127.56 282.03 1135.54 282.49 1143.52 283.09 1151.49 283.7 1159.47 284.46 1167.45 285.22 1175.43 286.12 1183.41 287.02 1191.39 288.06 1199.37 289.1 1207.35 290.28 1215.33 291.45 1223.31 292.76 1231.29 294.06 1239.27 295.49 1247.24 296.91 1255.22 298.46 1263.2 300 1271.18 301.65 1279.16 303.3 1287.14 305.05 1295.12 306.8" stroke="rgba(22, 177, 251, 1)" stroke-width="4"></path><path d="M1319.28 312.44Q1325.99 314.09 1332.69 315.73 1339.4 317.43 1346.11 319.12 1352.81 320.86 1359.52 322.6 1366.23 324.38 1372.93 326.15 1379.64 327.96 1386.35 329.77 1393.05 331.6 1399.76 333.44 1406.47 335.29 1413.17 337.14 1419.88 339.01 1426.59 340.87 1433.29 342.74 1440 344.62" stroke="rgba(218, 214, 214, 0.34)" stroke-width="4"></path><path d="M41.37 399.18Q49.24 401.33 57.11 403.48 64.98 405.59 72.85 407.7 80.72 409.76 88.59 411.82 96.46 413.83 104.33 415.83 112.2 417.77 120.07 419.71 127.94 421.57 135.81 423.44 143.68 425.22 151.55 427" stroke="rgba(218, 214, 214, 0.34)" stroke-width="4"></path><path d="M177.61 432.47Q185.53 434 193.46 435.52 201.38 436.94 209.3 438.35 217.22 439.64 225.15 440.93 233.07 442.09 240.99 443.26 248.91 444.29 256.84 445.32 264.76 446.21 272.68 447.1 280.61 447.85 288.53 448.61 296.45 449.21 304.37 449.82 312.3 450.27 320.22 450.73 328.14 451.04 336.06 451.34 343.99 451.5 351.91 451.65" stroke="rgba(218, 214, 214, 0.34)" stroke-width="4"></path><path d="M367.25 451.66Q371.35 451.6 375.45 451.55 379.56 451.45 383.66 451.35 387.76 451.21 391.86 451.07" stroke="rgba(218, 214, 214, 0.34)" stroke-width="4"></path><path d="M425.92 449.06Q432.86 448.46 439.81 447.85 446.75 447.13 453.69 446.42 460.64 445.59 467.58 444.77" stroke="rgba(22, 177, 251, 1)" stroke-width="4"></path><path d="M482.06 442.83Q489.84 441.66 497.63 440.5 505.41 439.21 513.2 437.92 520.98 436.51 528.76 435.11 536.55 433.6 544.33 432.08 552.12 430.47 559.9 428.85 567.69 427.14 575.47 425.43 583.25 423.63 591.04 421.83 598.82 419.96 606.61 418.08 614.39 416.14 622.17 414.19 629.96 412.18 637.74 410.17 645.53 408.11 653.31 406.05" stroke="rgba(22, 177, 251, 1)" stroke-width="4"></path><path d="M667.68 402.18Q675.23 400.11 682.79 398.04 690.34 395.95 697.89 393.86 705.45 391.75 713 389.65 720.55 387.54 728.11 385.43 735.66 383.32 743.22 381.22 750.77 379.13 758.32 377.04 765.88 374.97 773.43 372.91 780.98 370.87 788.54 368.84 796.09 366.84 803.64 364.85 811.2 362.91 818.75 360.96" stroke="rgba(218, 214, 214, 0.34)" stroke-width="4"></path><path d="M848.98 353.55Q856.92 351.71 864.87 349.88 872.81 348.14 880.76 346.39 888.7 344.75 896.64 343.1 904.59 341.57 912.53 340.03 920.48 338.61 928.42 337.19 936.37 335.89 944.31 334.59 952.25 333.41 960.2 332.24 968.14 331.2 976.09 330.16 984.03 329.26 991.97 328.36 999.92 327.6 1007.86 326.84 1015.81 326.22 1023.75 325.61" stroke="rgba(218, 214, 214, 0.34)" stroke-width="4"></path><path d="M1058.11 323.98Q1061.76 323.9 1065.42 323.82 1069.07 323.77 1072.73 323.72 1076.38 323.71 1080.04 323.69" stroke="rgba(117, 81, 224, 1)" stroke-width="4"></path><path d="M1099.51 323.92Q1107.88 324.21 1116.25 324.49 1124.62 324.94 1132.99 325.4 1141.37 326.01 1149.74 326.63 1158.11 327.41 1166.48 328.19 1174.85 329.13 1183.22 330.07" stroke="rgba(117, 81, 224, 1)" stroke-width="4"></path><path d="M1194.78 331.55Q1201.24 332.46 1207.71 333.37 1214.17 334.37 1220.64 335.37 1227.11 336.45 1233.57 337.53" stroke="rgba(218, 214, 214, 0.34)" stroke-width="4"></path><path d="M1254.19 341.3Q1262.19 342.9 1270.19 344.49 1278.19 346.19 1286.19 347.89 1294.2 349.69 1302.2 351.49 1310.2 353.37 1318.2 355.26 1326.2 357.22 1334.2 359.19 1342.2 361.22 1350.2 363.25 1358.21 365.35 1366.21 367.44 1374.21 369.58 1382.21 371.72" stroke="rgba(117, 81, 224, 1)" stroke-width="4"></path><path d="M1398.15 376.07Q1400.77 376.79 1403.38 377.51 1406 378.23 1408.61 378.95 1411.23 379.68 1413.84 380.4 1416.46 381.13 1419.07 381.86 1421.69 382.59 1424.31 383.31 1426.92 384.04 1429.54 384.77 1432.15 385.5 1434.77 386.23 1437.38 386.96 1440 387.69" stroke="rgba(218, 214, 214, 0.34)" stroke-width="4"></path><path d="M37.78 441.27Q46.1 443.55 54.41 445.82 62.73 448.06 71.05 450.29 79.36 452.48 87.68 454.66" stroke="rgba(22, 177, 251, 1)" stroke-width="4"></path><path d="M117.04 462.05Q124.59 463.85 132.14 465.66 139.69 467.39 147.23 469.11 154.78 470.76 162.33 472.4" stroke="rgba(218, 214, 214, 0.34)" stroke-width="4"></path><path d="M183.5 476.71Q191.14 478.14 198.78 479.58 206.43 480.9 214.07 482.23 221.71 483.44 229.35 484.65 237 485.74 244.64 486.83 252.28 487.8 259.92 488.76 267.57 489.6 275.21 490.44 282.85 491.14 290.5 491.85 298.14 492.42 305.78 492.99 313.42 493.42 321.06 493.85 328.71 494.14 336.35 494.43 343.99 494.58 351.63 494.73 359.28 494.73 366.92 494.74" stroke="rgba(22, 177, 251, 1)" stroke-width="4"></path><path d="M389.29 494.25Q392.5 494.12 395.7 493.99 398.91 493.84 402.12 493.69 405.32 493.52 408.53 493.34" stroke="rgba(218, 214, 214, 0.34)" stroke-width="4"></path><path d="M419.15 492.65Q428.96 491.84 438.77 491.03 448.57 489.99 458.38 488.96 468.19 487.72 478 486.47" stroke="rgba(22, 177, 251, 1)" stroke-width="4"></path><path d="M514.54 480.76Q522.91 479.24 531.29 477.71 539.66 476.06 548.03 474.41 556.41 472.64 564.78 470.88 573.16 469 581.53 467.13" stroke="rgba(117, 81, 224, 1)" stroke-width="4"></path><path d="M608.04 460.81Q615.93 458.83 623.83 456.84 631.72 454.8 639.61 452.76 647.51 450.67 655.4 448.57 663.29 446.43 671.19 444.3 679.08 442.13 686.97 439.96 694.87 437.77 702.76 435.58 710.65 433.38 718.54 431.18 726.44 428.97 734.33 426.77 742.22 424.58 750.12 422.38 758.01 420.21 765.9 418.04 773.8 415.89 781.69 413.75" stroke="rgba(117, 81, 224, 1)" stroke-width="4"></path><path d="M800.81 408.67Q808.91 406.57 817 404.48 825.1 402.45 833.2 400.43 841.3 398.48 849.39 396.52 857.49 394.66 865.59 392.79 873.69 391.02 881.78 389.25 889.88 387.58 897.98 385.92 906.07 384.36 914.17 382.8 922.27 381.37 930.37 379.93 938.46 378.62 946.56 377.31 954.66 376.14 962.76 374.96 970.85 373.93 978.95 372.89" stroke="rgba(218, 214, 214, 0.34)" stroke-width="4"></path><path d="M997.47 370.87Q1005.51 370.16 1013.55 369.44 1021.59 368.87 1029.63 368.31 1037.67 367.9 1045.71 367.48 1053.74 367.23 1061.78 366.97 1069.82 366.87 1077.86 366.77 1085.9 366.83 1093.94 366.89 1101.98 367.1 1110.02 367.32" stroke="rgba(22, 177, 251, 1)" stroke-width="4"></path><path d="M1142.24 369.11Q1150.21 369.79 1158.17 370.46 1166.14 371.27 1174.11 372.09 1182.07 373.05 1190.04 374.01 1198.01 375.1 1205.97 376.2 1213.94 377.42 1221.91 378.65 1229.88 380 1237.84 381.36 1245.81 382.83 1253.78 384.3 1261.74 385.89 1269.71 387.47 1277.68 389.16 1285.64 390.85 1293.61 392.64 1301.58 394.42 1309.54 396.3 1317.51 398.17" stroke="rgba(22, 177, 251, 1)" stroke-width="4"></path><path d="M1333.04 401.97Q1340.88 403.96 1348.73 405.95 1356.58 408 1364.42 410.04 1372.27 412.14 1380.11 414.23 1387.95 416.37 1395.8 418.5 1403.64 420.67 1411.49 422.83 1419.34 425.01 1427.18 427.19" stroke="rgba(218, 214, 214, 0.34)" stroke-width="4"></path><path d="M32.74 482.96Q40.3 485.04 47.87 487.12 55.43 489.17 63 491.22 70.56 493.23 78.12 495.24 85.69 497.21 93.25 499.17 100.81 501.08 108.38 503 115.94 504.84 123.51 506.69 131.07 508.47 138.63 510.24 146.2 511.94 153.76 513.64 161.33 515.24 168.89 516.85" stroke="rgba(218, 214, 214, 0.34)" stroke-width="4"></path><path d="M187.85 520.62Q195.79 522.08 203.74 523.54 211.68 524.87 219.63 526.21 227.57 527.42 235.51 528.63 243.46 529.71 251.4 530.79 259.34 531.74 267.29 532.68 275.23 533.48 283.18 534.28 291.12 534.94 299.06 535.6 307.01 536.11 314.95 536.61 322.89 536.97 330.84 537.33 338.78 537.53 346.73 537.74 354.67 537.79 362.61 537.84 370.56 537.74 378.5 537.64" stroke="rgba(218, 214, 214, 0.34)" stroke-width="4"></path><path d="M417.72 535.83Q425.35 535.23 432.97 534.63 440.6 533.9 448.22 533.16 455.85 532.3 463.47 531.43 471.1 530.44 478.73 529.45 486.35 528.33 493.98 527.22 501.6 525.98 509.23 524.75 516.85 523.41 524.48 522.06" stroke="rgba(117, 81, 224, 1)" stroke-width="4"></path><path d="M539.91 519.12Q547.76 517.52 555.62 515.91 563.47 514.21 571.33 512.51 579.18 510.72 587.04 508.93 594.89 507.05 602.74 505.18 610.6 503.23 618.45 501.28 626.31 499.27 634.16 497.26 642.02 495.19 649.87 493.13 657.73 491.01 665.58 488.9" stroke="rgba(22, 177, 251, 1)" stroke-width="4"></path><path d="M699.84 479.47Q707.38 477.37 714.93 475.26 722.47 473.16 730.01 471.05 737.55 468.95 745.1 466.85 752.64 464.77 760.18 462.68 767.73 460.62 775.27 458.56 782.81 456.53 790.36 454.51 797.9 452.52 805.44 450.54 812.98 448.6 820.53 446.67 828.07 444.79 835.61 442.91 843.16 441.1 850.7 439.29" stroke="rgba(22, 177, 251, 1)" stroke-width="4"></path><path d="M881.23 432.45Q888.82 430.88 896.41 429.31 904 427.83 911.59 426.36 919.18 424.99 926.77 423.63 934.36 422.37 941.95 421.11 949.54 419.97 957.13 418.83 964.72 417.8 972.31 416.78 979.9 415.89 987.49 414.99" stroke="rgba(117, 81, 224, 1)" stroke-width="4"></path><path d="M1013.54 412.52Q1021.36 411.97 1029.17 411.41 1036.99 411.01 1044.81 410.6 1052.62 410.34 1060.44 410.08 1068.25 409.97 1076.07 409.86 1083.89 409.89 1091.7 409.93 1099.52 410.12 1107.34 410.3 1115.15 410.63 1122.97 410.97" stroke="rgba(218, 214, 214, 0.34)" stroke-width="4"></path><path d="M1157.38 413.46Q1165.28 414.26 1173.18 415.06 1181.08 416.01 1188.99 416.95 1196.89 418.02 1204.79 419.1 1212.69 420.31 1220.59 421.52 1228.49 422.85 1236.39 424.18 1244.3 425.63 1252.2 427.08 1260.1 428.64 1268 430.2" stroke="rgba(218, 214, 214, 0.34)" stroke-width="4"></path><path d="M1284.61 433.7Q1293.03 435.59 1301.45 437.47 1309.86 439.45 1318.28 441.43 1326.7 443.5 1335.12 445.57 1343.54 447.71 1351.95 449.86 1360.37 452.07 1368.79 454.28" stroke="rgba(22, 177, 251, 1)" stroke-width="4"></path><path d="M1379.13 457.05Q1388.88 459.7 1398.63 462.36 1408.38 465.05 1418.13 467.75 1427.88 470.47 1437.63 473.18" stroke="rgba(218, 214, 214, 0.34)" stroke-width="4"></path><path d="M11.11 520.02Q19.11 522.25 27.11 524.48 35.11 526.68 43.11 528.89 51.11 531.07 59.11 533.25 67.11 535.39 75.11 537.52 83.11 539.61 91.11 541.7" stroke="rgba(218, 214, 214, 0.34)" stroke-width="4"></path><path d="M126.4 550.46Q134.08 552.25 141.76 554.03 149.44 555.74 157.11 557.44 164.79 559.05 172.47 560.67 180.15 562.18 187.83 563.7 195.51 565.11 203.18 566.52 210.86 567.82 218.54 569.11 226.22 570.3 233.9 571.48 241.58 572.54 249.26 573.6 256.93 574.53 264.61 575.46 272.29 576.26 279.97 577.06 287.65 577.73 295.33 578.39 303 578.92 310.68 579.45 318.36 579.83 326.04 580.22" stroke="rgba(117, 81, 224, 1)" stroke-width="4"></path><path d="M363.87 580.91Q367.24 580.88 370.6 580.85 373.97 580.8 377.34 580.74 380.7 580.66 384.07 580.57" stroke="rgba(22, 177, 251, 1)" stroke-width="4"></path><path d="M412.19 579.27Q414.07 579.15 415.94 579.03 417.82 578.9 419.7 578.76 421.57 578.63 423.45 578.49" stroke="rgba(218, 214, 214, 0.34)" stroke-width="4"></path><path d="M450.68 575.98Q458.51 575.07 466.34 574.16 474.17 573.11 482 572.07 489.83 570.89 497.66 569.72 505.49 568.42 513.32 567.13 521.15 565.71 528.98 564.3 536.81 562.78 544.64 561.25 552.47 559.62 560.3 558 568.13 556.27 575.96 554.55 583.79 552.74 591.62 550.93 599.45 549.04 607.28 547.15" stroke="rgba(117, 81, 224, 1)" stroke-width="4"></path><path d="M646.8 537.02Q655.13 534.79 663.45 532.55 671.78 530.28 680.11 528.01 688.44 525.7 696.76 523.4 705.09 521.08 713.42 518.76 721.74 516.44 730.07 514.11 738.4 511.79 746.73 509.48 755.05 507.18 763.38 504.88" stroke="rgba(22, 177, 251, 1)" stroke-width="4"></path><path d="M781.94 499.84Q789.66 497.78 797.38 495.72 805.09 493.72 812.81 491.71 820.53 489.76 828.25 487.81 835.97 485.92 843.69 484.04 851.4 482.23 859.12 480.41 866.84 478.69 874.56 476.96 882.28 475.32 890 473.69 897.71 472.15 905.43 470.61 913.15 469.17 920.87 467.74" stroke="rgba(117, 81, 224, 1)" stroke-width="4"></path><path d="M945.12 463.69Q950.08 462.95 955.04 462.2 960 461.51 964.97 460.82 969.93 460.18 974.89 459.54" stroke="rgba(22, 177, 251, 1)" stroke-width="4"></path><path d="M1009.42 455.93Q1012.47 455.69 1015.52 455.44 1018.57 455.21 1021.63 454.99 1024.68 454.78 1027.73 454.58" stroke="rgba(117, 81, 224, 1)" stroke-width="4"></path><path d="M1066.58 453.03Q1075.04 452.98 1083.49 452.93 1091.95 453.05 1100.4 453.18 1108.86 453.47 1117.31 453.77 1125.77 454.24 1134.23 454.71 1142.68 455.34 1151.14 455.98 1159.59 456.78 1168.05 457.59 1176.5 458.55 1184.96 459.52" stroke="rgba(117, 81, 224, 1)" stroke-width="4"></path><path d="M1200.82 461.61Q1210.27 463.03 1219.72 464.45 1229.17 466.05 1238.63 467.65 1248.08 469.42 1257.53 471.18" stroke="rgba(117, 81, 224, 1)" stroke-width="4"></path><path d="M1275.23 474.77Q1283.59 476.58 1291.94 478.39 1300.3 480.31 1308.65 482.22 1317.01 484.22 1325.37 486.23 1333.72 488.32 1342.08 490.4 1350.44 492.56 1358.79 494.72 1367.15 496.93 1375.5 499.15 1383.86 501.41 1392.22 503.68 1400.57 505.97 1408.93 508.27" stroke="rgba(22, 177, 251, 1)" stroke-width="4"></path></g><defs><clipPath id="SvgjsClipPath1010"><rect width="1440" height="560" x="0" y="0"></rect></clipPath></defs></svg>